<?xml version="1.0" encoding="utf-8"?>
<!-- Generator: Adobe Illustrator 25.0.0, SVG Export Plug-In . SVG Version: 6.00 Build 0)  -->
<svg version="1.1" id="Layer_1" xmlns="http://www.w3.org/2000/svg" xmlns:xlink="http://www.w3.org/1999/xlink" x="0px" y="0px"
	 viewBox="0 0 841.6 187.7" style="enable-background:new 0 0 841.6 187.7;" xml:space="preserve">
<style type="text/css">
	.st0{fill:#93929A;}
	.st1{fill:#821518;}
</style>
<g>
	<g>
		<path class="st0" d="M61,7.2c14.3-1.8,29.1,1.5,41.1,9.5c13.7,8.8,23.7,23.3,27,39.2c1.8,8.2,1.3,16.7,1.3,25
			c-0.1,11.7,0.1,23.4-0.1,35.1c-0.4,16.9-8.2,33.5-20.9,44.6c-10.1,9-23.1,14.5-36.6,15.3c-15.5,1.1-31.3-3.9-43.2-13.8
			c-14-11.4-22.8-29.1-22.7-47.2c0-15.6,0-31.3,0-46.9c0-15.3,6.1-30.4,16.5-41.5C33.2,15.9,46.7,8.9,61,7.2z M39.1,30.2
			C27.4,39,20.2,53.3,20,67.9c0,15.7,0,31.4,0,47c0.1,17.1,10.1,33.6,25.1,41.8c13.6,7.7,30.9,8.2,44.9,1.2
			c16.2-7.7,27.4-25,27.4-43c0-11.3,0-22.7,0-34c-4.2,0-8.4,0-12.6,0c-0.1,7.1,0.2,14.1-0.2,21.2c-1.2,11.5-12.1,20.9-23.7,20.2
			c-11.5,0-22-9.9-22.5-21.5c-0.2-9.6,0-19.3-0.1-28.9c0-3-0.2-6.3,1.6-9c2.5-4.2,8.3-6.1,12.8-4.2c4.1,1.5,6.7,5.8,6.6,10.2
			c0.2,10.1-0.2,20.2,0.2,30.2c4.1,0,8.2,0,12.3-0.1c0-10.8,0.1-21.5-0.1-32.3c-0.6-11.6-11.3-21.6-22.9-21.3
			c-12.1-0.3-23.1,10.3-23.1,22.4c0,11-0.1,22,0,33c0.5,15.7,12.7,30,28,33.1c9.4,2.3,19.2-0.2,27.5-4.8c-3.6,8.5-11,15.2-19.5,18.5
			c-9.6,3.8-20.9,3.2-30-1.7c-9.8-5.1-17-15-18.8-26c-0.6-3.7-0.5-7.5-0.5-11.2c0-13.7,0-27.3,0-41c0.1-12.4,7.3-24.2,17.9-30.3
			c12.7-7.6,30-6.1,41.2,3.5c8.3,6.7,12.9,17.2,13.1,27.7c4.1,0,8.3,0,12.4,0c0.3-20.9-14.5-40.8-34.5-46.6
			C68,17.6,51.2,20.7,39.1,30.2z"/>
	</g>
</g>
<g>
	<path class="st1" d="M211.1,11.1c6.7-3.3,14.3-4.6,21.7-4.5c22,0,44-0.1,66,0c12.5,0.1,24.9,5.4,33.6,14.6
		c8.4,8.6,13.1,20.6,13.1,32.6c0,40.9,0,81.8,0,122.7c-5.7-0.1-11.3,0.1-17-0.1c0.2-41.2,0-82.3,0.1-123.5
		c-0.1-15.1-13.1-28.6-28.2-29.3c-14.2-0.2-28.5,0-42.7-0.1c6,2.7,11.9,6.4,15.6,12c3.5,5.1,5.4,11.2,5.3,17.4c0,13.4,0,26.7,0,40.1
		c-5.6,0.1-11.2,0.1-16.8,0.1c-0.1-13.4,0.1-26.8-0.1-40.1c0.2-7.1-5.8-13.6-12.9-13.8c-7.2-0.6-14.1,5.6-14.2,12.8
		c-0.1,14,0,27.9,0,41.9c0.2,12.9,9.8,24.9,22.3,28.1c10.4,3,22.2-0.3,29.7-8.1c5.5-5.5,8.6-13.3,8.6-21c0.1-13.1-0.1-26.3,0.1-39.4
		c5.6,0.1,11.2,0,16.7,0.1c-0.1,20.1,0,40.3,0,60.4c-0.2,16-6.8,31.8-18,43.2c-10.8,11.2-25.7,18.2-41.1,19.2
		c-13.3,1-26.9-2.2-38.3-9.2c-18-10.9-29.9-31.1-30.5-52.2c-0.2-17.3,0-34.7-0.1-52c0-6.4-0.4-12.8,1.1-19.1
		C188,29.7,197.9,17.2,211.1,11.1z M221.7,25c-11.9,3.7-20.7,15.4-20.9,27.9c0,20,0,40,0,60.1c0,14.2,6.9,28.1,18.1,36.7
		c10.8,8.6,25.5,12,39,9c14.3-3,26.9-13.1,32.9-26.5c-14.8,9.8-35.2,10.3-50.3,0.9c-13.6-8.1-22.5-23.4-22.7-39.3
		c0-14.3-0.1-28.7,0.1-43c0.5-12.5,9.5-23.4,21.2-27.4C233.2,23.6,227.2,23,221.7,25z"/>
</g>
<path class="st1" d="M376.8,19.9c8.7-8.6,20.9-13.3,33.1-13.2c26,0,51.9,0,77.9,0c13.6,0,26.9,6.2,35.7,16.6
	c7,8.2,11.1,18.9,11.2,29.7c0,41.2,0,82.4,0,123.6c-5.6,0-11.1,0-16.7,0.1c-0.1-41.2,0-82.5-0.1-123.7c-0.1-15-12.9-28.2-27.8-29.4
	c4.3,5.8,7.9,12.2,9.5,19.3c1.3,4.9,1.3,10.1,1.3,15.2c0,39.5,0,79.1,0,118.6c-5.6,0-11.1,0-16.7,0c-0.1-28.9,0-57.7,0-86.6
	c0-4.6,0.5-9.8-2.5-13.7c-3.7-5.6-11.8-7.6-17.6-4.3c-4.3,2.3-7.2,7-7.1,11.9c-0.1,13.4,0,26.8,0,40.1c-5.6,0-11.2,0-16.7,0
	c0-13.4,0.1-26.8-0.1-40.1c0.1-7.1-6.1-13.4-13.1-13.5C419.7,70,412.8,76.6,413,84c0,13.4,0,26.8,0,40.2c-5.6,0-11.3,0-16.9,0
	c0.1-13.7-0.1-27.5,0.1-41.2c0.2-13.8,11.2-26.5,24.8-28.8c10-2,20.6,1.6,27.8,8.8c8.9-9.6,23.9-11.8,35.6-6.2
	c0.2-6.6-1.1-13.5-4.8-19.1c-5.4-8.5-15.2-14.1-25.3-14.1c-13.7,0-27.4,0-41.1,0c-4.6-0.1-9.2,0.1-13.5,1.8
	c-11.4,4-19.9,15.4-20,27.6c0,25.7,0,51.4,0,77.1c-0.1,11.2,7,21.9,17,26.7c4.1,2.1,8.8,2.9,13.4,3.2c0,5.6,0,11.2,0,16.7
	c-13.4,0-26.7-5.9-35.5-16c-7.4-8.4-11.7-19.5-11.8-30.7c0-25.3,0-50.7,0-76C362.2,41.2,367.6,28.6,376.8,19.9z"/>
<path class="st1" d="M565.9,20c8.9-8.8,21.4-13.5,33.9-13.3c37,0,74-0.1,111,0.1c15,0,29.5,7.9,38.1,20.1c8-11.4,21.1-19.1,35-20
	c14.6-1.3,29.5,4.8,39.1,15.8c7.5,8.5,11.9,19.9,11.7,31.3c0,40.9,0,81.8,0,122.6c-5.6,0-11.1,0-16.7,0c-0.1-41.2,0-82.4-0.1-123.6
	c-0.1-15.4-13.7-29.2-29.1-29.4c-15.9-1-30.9,12.5-31.4,28.4c-0.1,14,0,28,0,41.9c-0.2,7.5,6.8,14.2,14.3,13.6
	c7-0.3,12.9-6.6,12.8-13.6c0.1-13.5,0-26.9,0-40.4c5.6,0,11.2,0,16.7,0c0,13.8,0,27.6,0,41.4c-0.1,14.1-11.5,27-25.4,29
	c-9.8,1.7-20-1.9-27-8.9c-7.4,7.6-18.8,11-29.1,8.4c-13-2.9-23.1-15.3-23.3-28.6c-0.1-13.8,0-27.6,0-41.4c5.6,0,11.2,0,16.9,0
	c0.1,13.8-0.1,27.6,0.1,41.3c0.2,7.2,7.3,13.3,14.4,12.6c6.9-0.3,12.9-6.6,12.6-13.5c0-14,0-28,0-42c-0.6-14.9-13.7-27.9-28.6-28.4
	c-26.3-0.1-52.7,0-79-0.1c-12.4-0.4-24.5,7.8-28.8,19.5c-2.9,6.8-1.8,14.3-2,21.5c9.8-8.2,23-12.2,35.7-10.6
	c13.7,1.5,26.5,9.5,34,21c5,7.7,7.7,16.8,7.7,26c0,25.2,0,50.4,0,75.6c-5.6,0-11.1,0-16.7,0.1c-0.3-25.6,0-51.2-0.2-76.8
	c-0.2-8.5-4.2-16.7-10.7-22.2c-8.6-7.5-21.6-9.5-32-4.6c-10.4,4.6-17.8,15.4-17.9,26.8c0,8.1,0,16.1,0,24.2
	c-5.7-0.1-11.3,0.1-16.9-0.1c0.1-23.6,0-47.3,0-70.9c0.1-10.7,4.2-21,10.7-29.4c-8.7,0.8-16.9,5.5-21.9,12.6
	c-3.9,5.4-5.8,12-5.7,18.6c0,24.7,0,49.4,0,74.1c0,7.3,2.5,14.6,7.3,20.2c5.6,6.7,14.3,10.5,23,10.7c0,5.6,0,11.2,0,16.8
	c-13.2-0.1-26.2-5.7-35-15.6c-7.7-8.4-12.1-19.7-12.1-31.1c0-25.7,0-51.3,0-77C551.7,40.6,557,28.5,565.9,20z"/>
<path d="M703.8,159.3h-3.4v16c-0.3-0.2-0.7-0.5-0.9-0.8c-0.3-0.3-0.6-0.6-0.8-0.9c0-1.5,0-2.8,0.1-4c0-0.5,0-1,0-1.5s0-0.9,0-1.3
	s0-0.8,0-1.3c0-0.2-0.1-0.4-0.2-0.7c-0.1-0.3-0.3-0.6-0.4-0.9c-0.2-0.3-0.4-0.6-0.6-0.8c-0.2-0.2-0.4-0.4-0.5-0.5l-5.3,5.4l-2.3-0.9
	c0.1-0.2,0.3-0.3,0.5-0.5s0.4-0.3,0.5-0.5s0.3-0.4,0.4-0.6s0.2-0.4,0.2-0.7c0-0.2,0-0.3,0-0.5s-0.1-0.4-0.2-0.5
	c-0.1-0.2-0.2-0.3-0.3-0.4s-0.3-0.2-0.5-0.2s-0.3,0-0.5,0.1s-0.4,0.1-0.5,0.2s-0.4,0.2-0.5,0.2c-0.2,0.1-0.3,0.1-0.5,0.1
	c-0.3,0-0.6-0.1-0.8-0.4s-0.4-0.6-0.4-0.9c0-0.6,0.2-1.2,0.7-1.7s1-1,1.6-1.4s1.3-0.7,2-1c0.7-0.2,1.3-0.4,1.8-0.4
	c0.8,0,1.5,0.2,2.2,0.5s1.3,0.8,1.9,1.3c0.6,0.6,1,1.2,1.4,1.9c0.4,0.7,0.6,1.4,0.8,2.2c-0.3-1.5-0.4-2.9-0.4-4.2c0-1.4,0-2.8,0-4.3
	l0.9,0.6l0.1,0.2c0,0.4,0.1,0.8,0.2,1s0.4,0.4,0.8,0.6h1h0.6L703.8,159.3z M695.7,160.8c-0.6-0.7-1.4-1.1-2.4-1.1
	c-0.8,0-1.5,0.2-2.1,0.5s-1.1,0.8-1.5,1.5h0.1c0.3,0,0.6,0.1,0.9,0.2c0.3,0.2,0.5,0.4,0.7,0.7c0.2,0.3,0.4,0.6,0.4,0.9
	c0.1,0.3,0.1,0.7,0,1L695.7,160.8z"/>
<path d="M700.6,178.8c-0.4,0.3-0.8,0.5-1.2,0.7c-0.4,0.2-0.9,0.3-1.3,0.3s-0.7-0.1-1.1-0.2s-0.7-0.3-0.9-0.5
	c-0.3-0.2-0.5-0.5-0.7-0.8s-0.2-0.7-0.2-1.1s0.1-0.8,0.3-1.1c0.2-0.3,0.4-0.6,0.7-0.9c0.3-0.2,0.6-0.4,1-0.6
	c0.4-0.1,0.7-0.2,1.1-0.2c0.3,0,0.6,0,0.9,0.1l0.1-1.8c0.4,0.3,0.7,0.7,0.9,1.1c0.2,0.4,0.3,0.9,0.3,1.4c0,0.1,0,0.2,0,0.3
	c0,0.1-0.1,0.2-0.2,0.2c-0.3-0.1-0.6-0.2-0.9-0.2s-0.6,0-0.9,0.1s-0.6,0.2-0.9,0.3c-0.3,0.2-0.5,0.3-0.7,0.6
	c-0.2,0.2-0.3,0.5-0.3,0.8c0,0.1,0,0.3,0.1,0.3c0.1,0.1,0.2,0.2,0.3,0.2c0.1,0.1,0.3,0.1,0.4,0.1c0.2,0,0.3,0,0.4,0
	c0.4,0,0.9-0.1,1.4-0.2s0.9-0.3,1.3-0.6l4.4,3.7c0,0.2,0,0.4,0.1,0.5c0,0.1,0,0.2,0,0.3c0,0.1,0,0.2,0,0.3c0,0.1,0,0.3,0,0.5
	L700.6,178.8z"/>
<path d="M707.8,157.7c0.7,0,1.3,0.2,1.9,0.5c0.5,0.4,1,0.8,1.4,1.3s0.7,1.1,1,1.8c0.3,0.6,0.5,1.2,0.6,1.8l-0.3-3.7
	c0-0.3,0-0.7-0.1-1.2c0-0.4,0-0.9-0.1-1.3c0-0.4,0-0.8-0.1-1.2c0-0.3,0-0.6,0-0.7c0.3,0.3,0.5,0.6,0.7,0.9c0.1,0.2,0.3,0.4,0.4,0.6
	s0.2,0.4,0.4,0.6c0.2,0.2,0.4,0.4,0.8,0.7h1.1l1.6,1.6h-3.6v16c0,0,0-0.1-0.2-0.3c-0.2-0.2-0.3-0.4-0.6-0.6
	c-0.2-0.2-0.5-0.5-0.9-0.9v-8.7c0-0.6-0.1-1.1-0.3-1.7c-0.2-0.6-0.5-1.1-0.9-1.6s-0.8-0.8-1.3-1.1c-0.5-0.3-1.1-0.5-1.7-0.5
	c-0.4,0-0.7,0.1-1.1,0.3s-0.7,0.4-0.9,0.7c-0.3,0.3-0.5,0.6-0.6,1c-0.2,0.4-0.2,0.7-0.2,1.1c0,0.2,0,0.5,0.1,0.8s0.1,0.6,0.3,0.9
	c0.1,0.3,0.3,0.5,0.5,0.7s0.4,0.3,0.7,0.3c0-0.2,0-0.4,0-0.5c0-0.2,0-0.3,0-0.5c0-0.5,0.1-0.8,0.4-0.9c0.3-0.2,0.6-0.3,1-0.3
	c0.5,0,1,0.2,1.3,0.6c0.4,0.4,0.6,0.8,0.6,1.4c0,0.3-0.1,0.6-0.3,0.9c-0.2,0.3-0.4,0.5-0.7,0.7c-0.3,0.2-0.6,0.3-0.9,0.4
	s-0.6,0.1-0.9,0.1c-0.6,0-1.2-0.1-1.8-0.4c-0.5-0.2-1-0.6-1.3-1c-0.4-0.4-0.7-0.9-0.9-1.4c-0.2-0.5-0.3-1.1-0.3-1.7
	c0-0.7,0.1-1.4,0.3-2.1s0.5-1.2,1-1.7c0.4-0.5,0.9-0.8,1.6-1.1C706.3,157.8,707,157.7,707.8,157.7z"/>
<path d="M716.7,150.2l-6.7,6.5h-3.8l9.1-6.7L716.7,150.2z"/>
<path d="M735.2,159.3h-19.7l-1.6-1.6h19.6L735.2,159.3z M732.4,167.9c-0.1,0.8-0.3,1.5-0.6,2.2c-0.3,0.7-0.8,1.2-1.3,1.7
	s-1.1,0.9-1.8,1.1c-0.7,0.3-1.4,0.4-2.2,0.4c-1,0-1.9-0.2-2.7-0.7c-0.8-0.4-1.6-1-2.2-1.8c-0.7-0.7-1.3-1.6-1.8-2.5
	c-0.6-0.9-1-1.9-1.5-2.8c-0.4-1-0.8-1.9-1.1-2.9c-0.3-0.9-0.6-1.8-0.8-2.5l0.9,0.4c0.3,0.7,0.6,1.4,0.9,2.1c0.3,0.8,0.7,1.5,1.1,2.3
	c0.4,0.7,0.9,1.5,1.4,2.2s1.1,1.3,1.7,1.8s1.3,1,2,1.3s1.5,0.5,2.4,0.5c0.5,0,1-0.1,1.5-0.3s1-0.5,1.4-0.9s0.8-0.8,1-1.3
	c0.3-0.5,0.4-1,0.5-1.5s0-1-0.2-1.5s-0.4-0.9-0.8-1.3c-0.3-0.4-0.7-0.7-1.1-0.9c-0.4-0.2-0.8-0.3-1.2-0.3c-0.2,0-0.4,0-0.5,0.1
	c-0.2,0-0.3,0.1-0.5,0.1c0.2,0.3,0.3,0.5,0.4,0.8s0.1,0.6,0.1,0.9c0,0.8-0.2,1.4-0.7,1.7c-0.4,0.3-1,0.5-1.8,0.5
	c-0.9,0-1.6-0.3-2-0.9s-0.7-1.3-0.7-2.1c0-0.5,0.1-0.9,0.3-1.3s0.5-0.7,0.8-1s0.7-0.5,1.2-0.7c0.4-0.2,0.9-0.2,1.4-0.2
	c0.9,0,1.7,0.2,2.6,0.5c0.8,0.3,1.5,0.8,2.2,1.5s1.1,1.4,1.4,2.3C732.4,165.9,732.5,166.9,732.4,167.9z"/>
<path d="M741.3,159.3h-3.9v16.5c0,0-0.1-0.1-0.3-0.3c-0.2-0.2-0.3-0.4-0.5-0.5l-0.7-0.8v-11.8c0-0.5,0-0.9-0.1-1.3s-0.2-0.7-0.4-1
	s-0.4-0.5-0.7-0.6c-0.3-0.1-0.7-0.2-1.2-0.1l-1.3-1.6c0.3,0,0.4,0,0.6,0c0.1,0,0.3,0,0.5,0c0.4,0,0.8,0.1,1.1,0.2s0.6,0.3,0.8,0.6
	s0.5,0.6,0.7,1.1c0.2,0.4,0.4,1,0.6,1.6c0-0.3,0-0.6-0.1-0.9c0-0.3-0.1-0.6-0.1-1c-0.1-0.4-0.1-0.9-0.2-1.5s-0.2-1.3-0.3-2.2
	l0.6,0.5c0,0.2,0.1,0.4,0.1,0.6c0,0.1,0.1,0.3,0.2,0.4s0.1,0.2,0.3,0.3c0.1,0.1,0.2,0.3,0.4,0.4h2.4L741.3,159.3z"/>
<path d="M754.3,159.3h-3.4v16c-0.1-0.1-0.3-0.2-0.3-0.3s-0.2-0.3-0.5-0.5c-0.3-0.5-0.6-1.1-1-1.8c-0.4-0.7-0.8-1.4-1.4-2.1
	s-1.3-1.3-2.2-1.8c-0.9-0.5-2-0.8-3.4-0.9l-2-2.8c1.4-1,2.9-1.9,4.5-2.8c1.6-0.8,3.2-1.5,4.8-2v-1h-9.6l-1.6-1.6h14.6L754.3,159.3z
	 M749.3,162.7c-1.1,0.4-2.2,0.8-3.2,1.4s-1.9,1.1-2.9,1.8c1.3,0.6,2.5,1.3,3.6,2.2s1.9,2,2.5,3.3V162.7z M745,174
	c-0.5,0-0.9-0.2-1.2-0.5c-0.3-0.3-0.5-0.7-0.5-1.2c0-0.4,0.1-0.8,0.4-1.1c0.3-0.3,0.6-0.5,1.1-0.5s0.9,0.2,1.2,0.5s0.5,0.7,0.5,1.2
	c0,0.4-0.1,0.8-0.4,1.1C745.7,173.8,745.4,174,745,174z"/>
<path d="M779,159.3h-3.4v16c-0.3-0.2-0.7-0.5-0.9-0.8c-0.3-0.3-0.6-0.6-0.8-0.9c0-1.5,0-2.8,0.1-4c0-0.5,0-1,0-1.5s0-0.9,0-1.3
	s0-0.8,0-1.3c0-0.2-0.1-0.4-0.2-0.7c-0.1-0.3-0.3-0.6-0.4-0.9c-0.2-0.3-0.4-0.6-0.6-0.8c-0.2-0.2-0.4-0.4-0.5-0.5L767,168l-2.3-0.9
	c0.1-0.2,0.3-0.3,0.5-0.5s0.4-0.3,0.5-0.5s0.3-0.4,0.4-0.6s0.2-0.4,0.2-0.7c0-0.2,0-0.3,0-0.5s-0.1-0.4-0.2-0.5
	c-0.1-0.2-0.2-0.3-0.3-0.4c-0.1-0.1-0.3-0.2-0.5-0.2s-0.3,0-0.5,0.1s-0.4,0.1-0.5,0.2s-0.4,0.2-0.5,0.2c-0.2,0.1-0.3,0.1-0.5,0.1
	c-0.3,0-0.6-0.1-0.8-0.4c-0.2-0.3-0.4-0.6-0.4-0.9c0-0.6,0.2-1.2,0.7-1.7s1-1,1.6-1.4s1.3-0.7,2-1c0.7-0.2,1.3-0.4,1.8-0.4
	c0.8,0,1.5,0.2,2.2,0.5s1.3,0.8,1.9,1.3c0.6,0.6,1,1.2,1.4,1.9c0.4,0.7,0.6,1.4,0.8,2.2c-0.3-1.5-0.4-2.9-0.4-4.2c0-1.4,0-2.8,0-4.3
	l0.9,0.6l0.1,0.2c0,0.4,0.1,0.8,0.2,1s0.4,0.4,0.8,0.6h1h0.6L779,159.3z M771,160.8c-0.6-0.7-1.4-1.1-2.4-1.1
	c-0.8,0-1.5,0.2-2.1,0.5s-1.1,0.8-1.5,1.5h0.1c0.3,0,0.6,0.1,0.9,0.2c0.3,0.2,0.5,0.4,0.7,0.7c0.2,0.3,0.4,0.6,0.4,0.9
	c0.1,0.3,0.1,0.7,0,1L771,160.8z"/>
<path d="M775.4,176.2c-0.1-0.1-0.2-0.3-0.3-0.4c-0.1-0.2-0.2-0.3-0.3-0.5c-0.1-0.2-0.2-0.3-0.2-0.4c-0.3-0.6-0.6-1-0.9-1.4
	c-0.2-0.4-0.5-0.7-0.8-0.9c-0.3-0.2-0.7-0.4-1.1-0.5c-0.5-0.1-1-0.1-1.8-0.1c-0.7,0-1.4,0-2,0.1s-1.3,0.1-2,0.1s-1.3-0.1-2-0.3
	c-0.6-0.2-1.2-0.5-1.6-1c-0.5-0.4-0.8-0.9-1.1-1.5c-0.3-0.6-0.4-1.2-0.4-1.9c0-0.4,0-0.8,0-1.3c0-0.4,0.1-0.9,0.2-1.3l0.9,0.9
	c-0.1,0.2-0.2,0.4-0.2,0.7c0,0.9,0.2,1.6,0.7,2c0.4,0.4,1,0.7,1.7,0.9c0.7,0.2,1.5,0.3,2.4,0.3s1.8,0.1,2.7,0.2
	c0.9,0.1,1.7,0.3,2.6,0.6c0.8,0.3,1.5,0.8,2,1.5c0.2,0.3,0.4,0.6,0.6,0.8s0.3,0.5,0.5,0.7c0.1,0.2,0.3,0.4,0.4,0.7
	c0.1,0.2,0.2,0.4,0.3,0.7v1.7C775.6,176.5,775.5,176.4,775.4,176.2z"/>
<path d="M792.7,159.3h-3.6v16.2c-0.3-0.2-0.6-0.6-0.8-1s-0.4-0.8-0.5-1.2c-0.7-1.5-1.7-2.6-2.9-3.4c-1.2-0.8-2.7-1.2-4.2-1.3
	l-2.1-2.7c0.7-0.7,1.5-1.4,2.3-2.1s1.6-1.3,2.4-1.9c-0.4-0.5-0.9-0.8-1.4-0.9c-0.5-0.2-1-0.3-1.6-0.3c-0.6-0.1-1-0.2-1.4-0.4
	c-0.4-0.2-0.7-0.4-1-0.7c-0.3-0.3-0.6-0.6-0.9-0.9s-0.6-0.7-1-1.1h15.3L792.7,159.3z M783.2,174.1c-0.5,0-0.9-0.2-1.2-0.5
	c-0.4-0.3-0.5-0.7-0.5-1.2s0.2-0.8,0.5-1.1c0.3-0.3,0.7-0.5,1.1-0.5c0.5,0,0.9,0.2,1.2,0.5c0.4,0.3,0.5,0.7,0.5,1.2
	c0,0.4-0.2,0.8-0.5,1.2C784,174,783.7,174.1,783.2,174.1z M787.5,159.3h-5.7c0.8,0.5,1.5,1.1,2,1.7c0.6,0.6,1.1,1.3,1.8,2
	c-0.6,0.7-1.2,1.3-1.9,1.9c-0.6,0.6-1.3,1.2-1.9,1.9c1.2,0.4,2.3,1,3.3,1.8s1.8,1.7,2.4,2.8L787.5,159.3L787.5,159.3z"/>
<path d="M798.8,159.3h-3.9v16.5c0,0-0.1-0.1-0.3-0.3c-0.2-0.2-0.3-0.4-0.5-0.5l-0.7-0.8v-11.8c0-0.5,0-0.9-0.1-1.3s-0.2-0.7-0.4-1
	s-0.4-0.5-0.7-0.6c-0.3-0.1-0.7-0.2-1.2-0.1l-1.3-1.6c0.3,0,0.4,0,0.6,0c0.1,0,0.3,0,0.5,0c0.4,0,0.8,0.1,1.1,0.2s0.6,0.3,0.8,0.6
	s0.5,0.6,0.7,1.1c0.2,0.4,0.4,1,0.6,1.6c0-0.3,0-0.6-0.1-0.9c0-0.3-0.1-0.6-0.1-1c-0.1-0.4-0.1-0.9-0.2-1.5s-0.2-1.3-0.3-2.2
	l0.6,0.5c0,0.2,0.1,0.4,0.1,0.6c0,0.1,0.1,0.3,0.2,0.4s0.1,0.2,0.3,0.3c0.1,0.1,0.2,0.3,0.4,0.4h2.4L798.8,159.3z"/>
<path d="M814,159.3h-3.4v16.1c0,0-0.1-0.1-0.3-0.3c-0.2-0.2-0.3-0.4-0.5-0.6s-0.5-0.5-0.8-0.9v-7.2c0-0.2-0.1-0.4-0.2-0.6
	c-0.2-0.2-0.4-0.4-0.6-0.6s-0.5-0.3-0.7-0.5c-0.3-0.1-0.5-0.2-0.7-0.2c-0.4,0-0.7,0.1-1,0.4c-0.3,0.2-0.6,0.6-0.9,0.9
	c-0.3,0.4-0.5,0.8-0.8,1.2c-0.3,0.4-0.5,0.9-0.8,1.2c-0.3,0.4-0.6,0.7-0.9,0.9c-0.3,0.3-0.7,0.4-1.1,0.4c-0.5,0-1-0.1-1.3-0.3
	c-0.4-0.2-0.7-0.5-0.9-0.8s-0.5-0.7-0.7-1.1s-0.4-0.8-0.7-1.2l1-1c0,0.1,0.1,0.3,0.2,0.6c0.1,0.2,0.2,0.5,0.3,0.7
	c0.1,0.2,0.3,0.4,0.5,0.6s0.4,0.2,0.5,0.2c0.2,0,0.4-0.1,0.7-0.4c0.3-0.3,0.6-0.6,0.9-1s0.6-0.7,0.8-1.1c0.2-0.3,0.4-0.6,0.4-0.6
	c-0.1-0.9-0.2-1.6-0.5-2.1c-0.2-0.5-0.5-0.8-0.9-1c-0.3-0.2-0.7-0.3-1.1-0.3s-0.8-0.1-1.2-0.1c-0.4-0.1-0.8-0.2-1.2-0.3
	c-0.4-0.2-0.8-0.5-1.1-1c-0.1,0-0.2-0.1-0.4-0.2c-0.2-0.1-0.4-0.3-0.5-0.5c-0.2-0.2-0.4-0.4-0.5-0.5c-0.2-0.2-0.3-0.3-0.4-0.4h17.1
	L814,159.3z M809.1,159.3H802c0.7,0.5,1.3,1,1.8,1.6c0.4,0.6,0.6,1.4,0.4,2.2c0.3-0.2,0.6-0.5,0.9-0.7s0.6-0.3,0.9-0.3
	s0.6,0.1,0.9,0.3c0.3,0.2,0.6,0.5,0.9,0.7s0.5,0.6,0.7,0.9s0.4,0.6,0.6,0.8L809.1,159.3L809.1,159.3z"/>
</svg>
